<svg id="Calque_1" data-name="Calque 1" xmlns="http://www.w3.org/2000/svg" viewBox="0 0 95.28 60.44"><defs><style>.cls-1{fill:#fff;}</style></defs><g id="Artecosy_logotype_horizontal" data-name="Artecosy logotype horizontal"><path id="Tracé_1091" data-name="Tracé 1091" class="cls-1" d="M13.79,3.48V63.92H54.56V3.48Zm2,58.49V5.43H40.91L21.36,62ZM30.41,42.22A22.63,22.63,0,0,0,44.35,62H23.58Zm22.2-21.83V61.56A20.63,20.63,0,0,1,32.49,41h0A20.61,20.61,0,0,1,52.61,20.39Zm0-2.13A22.51,22.51,0,0,0,36,26l7.11-20.6h9.46Z" transform="translate(-13.79 -3.48)"/><g id="Groupe_1751" data-name="Groupe 1751"><g id="Tracé_1073" data-name="Tracé 1073"><path id="Tracé_1092" data-name="Tracé 1092" class="cls-1" d="M68.86,18.2H67L62.27,32l-.06.18h2l1.21-3.66h5l1.22,3.66h2L68.89,18.29Zm-2.8,8.38L67.94,21l1.9,5.61Z" transform="translate(-13.79 -3.48)"/></g><g id="Tracé_1074" data-name="Tracé 1074"><path id="Tracé_1093" data-name="Tracé 1093" class="cls-1" d="M78.24,25.69h1.85l4,6.46h2.34l-4.12-6.62a3.61,3.61,0,0,0,2-1.18,3.68,3.68,0,0,0,.78-2.4A3.51,3.51,0,0,0,84,19.2a4.38,4.38,0,0,0-3-1H76.26V32.14h2Zm0-5.59H81c1.4,0,2.08.61,2.08,1.85h0c0,1.24-.68,1.84-2.08,1.84H78.24Z" transform="translate(-13.79 -3.48)"/></g><g id="Tracé_1075" data-name="Tracé 1075"><path id="Tracé_1094" data-name="Tracé 1094" class="cls-1" d="M91.84,32.15h2v-12h4V18.2H87.89v1.9h4Z" transform="translate(-13.79 -3.48)"/></g><g id="Tracé_1076" data-name="Tracé 1076"><path id="Tracé_1095" data-name="Tracé 1095" class="cls-1" d="M109,30.24H102.7V25.67h5v-1.9h-5V20.1h6.14V18.2h-8.12v14H109Z" transform="translate(-13.79 -3.48)"/></g><g id="Tracé_1077" data-name="Tracé 1077"><path id="Tracé_1096" data-name="Tracé 1096" class="cls-1" d="M68,37.6c1.67,0,2.77.9,3.38,2.75l0,.11,1.8-.53,0-.11a5.35,5.35,0,0,0-1.82-2.89A5.22,5.22,0,0,0,68,35.81a5.75,5.75,0,0,0-4.22,1.78A6.83,6.83,0,0,0,62,42.54a6.86,6.86,0,0,0,1.74,5A5.74,5.74,0,0,0,68,49.27a5.15,5.15,0,0,0,3.36-1.1,5.26,5.26,0,0,0,1.81-2.92l0-.11-1.8-.52,0,.11c-.6,1.85-1.7,2.75-3.38,2.75a3.72,3.72,0,0,1-2.91-1.27,5.41,5.41,0,0,1-1.11-3.66,5.44,5.44,0,0,1,1.11-3.67A3.75,3.75,0,0,1,68,37.6Z" transform="translate(-13.79 -3.48)"/></g><g id="Tracé_1078" data-name="Tracé 1078"><path id="Tracé_1097" data-name="Tracé 1097" class="cls-1" d="M81.78,35.81a5.65,5.65,0,0,0-4.21,1.81,6.83,6.83,0,0,0-1.71,4.92,6.91,6.91,0,0,0,1.71,4.94,5.83,5.83,0,0,0,8.24.16h0l.17-.16a6.87,6.87,0,0,0,1.71-4.94A6.79,6.79,0,0,0,86,37.62,5.63,5.63,0,0,0,81.78,35.81Zm0,11.66A3.69,3.69,0,0,1,78.9,46.2a5.41,5.41,0,0,1-1.12-3.66,5.44,5.44,0,0,1,1.12-3.67,3.88,3.88,0,0,1,5.74,0,5.39,5.39,0,0,1,1.13,3.67,5.36,5.36,0,0,1-1.13,3.66,3.66,3.66,0,0,1-2.86,1.27Z" transform="translate(-13.79 -3.48)"/></g><g id="Tracé_1079" data-name="Tracé 1079"><path id="Tracé_1098" data-name="Tracé 1098" class="cls-1" d="M96.83,42.49a12.25,12.25,0,0,0-1.71-1l-1-.52c-.13-.07-.38-.23-.73-.47a1.7,1.7,0,0,1-.71-1.39A1.51,1.51,0,0,1,93.1,38a1.32,1.32,0,0,1,1-.43,1.89,1.89,0,0,1,1.09.28,2.89,2.89,0,0,1,.85,1l.06.12,1.51-1,0-.1a4.05,4.05,0,0,0-1.37-1.59,3.77,3.77,0,0,0-2.1-.54,3.19,3.19,0,0,0-2.32,1,3.29,3.29,0,0,0-1,2.43,3,3,0,0,0,1,2.36A8.83,8.83,0,0,0,94,42.93a7.39,7.39,0,0,1,1.83,1.14,1.69,1.69,0,0,1,.54,1.27,2.23,2.23,0,0,1-.47,1.45,2.06,2.06,0,0,1-1.66.69,2.09,2.09,0,0,1-1.63-.65,5,5,0,0,1-1-2l0-.16-1.62,1,0,.09a4.46,4.46,0,0,0,1.5,2.57,4.13,4.13,0,0,0,2.79,1,3.91,3.91,0,0,0,4-3.8v-.19A3.5,3.5,0,0,0,96.83,42.49Z" transform="translate(-13.79 -3.48)"/></g><g id="Tracé_1080" data-name="Tracé 1080"><path id="Tracé_1099" data-name="Tracé 1099" class="cls-1" d="M107,36l-2.73,5.56L101.58,36l0-.06H99.48l3.86,7.49v5.67h1.87V43.45L109.07,36Z" transform="translate(-13.79 -3.48)"/></g></g></g></svg>